G04 #@! TF.FileFunction,Legend,Bot*
%FSLAX46Y46*%
G04 Gerber Fmt 4.6, Leading zero omitted, Abs format (unit mm)*
G04 Created by KiCad (PCBNEW 4.0.2-stable) date Friday, 10 June 2016 'pmt' 15:57:06*
%MOMM*%
G01*
G04 APERTURE LIST*
%ADD10C,0.100000*%
%ADD11C,0.150000*%
G04 APERTURE END LIST*
D10*
D11*
X166370714Y-106418571D02*
X167037381Y-106418571D01*
X166465952Y-106418571D02*
X166418333Y-106466190D01*
X166370714Y-106561428D01*
X166370714Y-106704286D01*
X166418333Y-106799524D01*
X166513571Y-106847143D01*
X167037381Y-106847143D01*
X167037381Y-107894762D02*
X166561190Y-107561428D01*
X167037381Y-107323333D02*
X166037381Y-107323333D01*
X166037381Y-107704286D01*
X166085000Y-107799524D01*
X166132619Y-107847143D01*
X166227857Y-107894762D01*
X166370714Y-107894762D01*
X166465952Y-107847143D01*
X166513571Y-107799524D01*
X166561190Y-107704286D01*
X166561190Y-107323333D01*
X166513571Y-108656667D02*
X166513571Y-108323333D01*
X167037381Y-108323333D02*
X166037381Y-108323333D01*
X166037381Y-108799524D01*
X166132619Y-109132857D02*
X166085000Y-109180476D01*
X166037381Y-109275714D01*
X166037381Y-109513810D01*
X166085000Y-109609048D01*
X166132619Y-109656667D01*
X166227857Y-109704286D01*
X166323095Y-109704286D01*
X166465952Y-109656667D01*
X167037381Y-109085238D01*
X167037381Y-109704286D01*
X166370714Y-110561429D02*
X167037381Y-110561429D01*
X165989762Y-110323333D02*
X166704048Y-110085238D01*
X166704048Y-110704286D01*
X167037381Y-111561429D02*
X167037381Y-111085238D01*
X166037381Y-111085238D01*
X166037381Y-112085238D02*
X166037381Y-112180477D01*
X166085000Y-112275715D01*
X166132619Y-112323334D01*
X166227857Y-112370953D01*
X166418333Y-112418572D01*
X166656429Y-112418572D01*
X166846905Y-112370953D01*
X166942143Y-112323334D01*
X166989762Y-112275715D01*
X167037381Y-112180477D01*
X167037381Y-112085238D01*
X166989762Y-111990000D01*
X166942143Y-111942381D01*
X166846905Y-111894762D01*
X166656429Y-111847143D01*
X166418333Y-111847143D01*
X166227857Y-111894762D01*
X166132619Y-111942381D01*
X166085000Y-111990000D01*
X166037381Y-112085238D01*
X167037381Y-113370953D02*
X167037381Y-112799524D01*
X167037381Y-113085238D02*
X166037381Y-113085238D01*
X166180238Y-112990000D01*
X166275476Y-112894762D01*
X166323095Y-112799524D01*
X166656429Y-113799524D02*
X166656429Y-114561429D01*
X167037381Y-114180477D02*
X166275476Y-114180477D01*
X168587381Y-104989999D02*
X167587381Y-104989999D01*
X167968333Y-104989999D02*
X167920714Y-105085237D01*
X167920714Y-105275714D01*
X167968333Y-105370952D01*
X168015952Y-105418571D01*
X168111190Y-105466190D01*
X168396905Y-105466190D01*
X168492143Y-105418571D01*
X168539762Y-105370952D01*
X168587381Y-105275714D01*
X168587381Y-105085237D01*
X168539762Y-104989999D01*
X168587381Y-105894761D02*
X167920714Y-105894761D01*
X168111190Y-105894761D02*
X168015952Y-105942380D01*
X167968333Y-105989999D01*
X167920714Y-106085237D01*
X167920714Y-106180476D01*
X168539762Y-106894762D02*
X168587381Y-106799524D01*
X168587381Y-106609047D01*
X168539762Y-106513809D01*
X168444524Y-106466190D01*
X168063571Y-106466190D01*
X167968333Y-106513809D01*
X167920714Y-106609047D01*
X167920714Y-106799524D01*
X167968333Y-106894762D01*
X168063571Y-106942381D01*
X168158810Y-106942381D01*
X168254048Y-106466190D01*
X168587381Y-107799524D02*
X168063571Y-107799524D01*
X167968333Y-107751905D01*
X167920714Y-107656667D01*
X167920714Y-107466190D01*
X167968333Y-107370952D01*
X168539762Y-107799524D02*
X168587381Y-107704286D01*
X168587381Y-107466190D01*
X168539762Y-107370952D01*
X168444524Y-107323333D01*
X168349286Y-107323333D01*
X168254048Y-107370952D01*
X168206429Y-107466190D01*
X168206429Y-107704286D01*
X168158810Y-107799524D01*
X168587381Y-108275714D02*
X167587381Y-108275714D01*
X168206429Y-108370952D02*
X168587381Y-108656667D01*
X167920714Y-108656667D02*
X168301667Y-108275714D01*
X168587381Y-109228095D02*
X168539762Y-109132857D01*
X168492143Y-109085238D01*
X168396905Y-109037619D01*
X168111190Y-109037619D01*
X168015952Y-109085238D01*
X167968333Y-109132857D01*
X167920714Y-109228095D01*
X167920714Y-109370953D01*
X167968333Y-109466191D01*
X168015952Y-109513810D01*
X168111190Y-109561429D01*
X168396905Y-109561429D01*
X168492143Y-109513810D01*
X168539762Y-109466191D01*
X168587381Y-109370953D01*
X168587381Y-109228095D01*
X167920714Y-110418572D02*
X168587381Y-110418572D01*
X167920714Y-109990000D02*
X168444524Y-109990000D01*
X168539762Y-110037619D01*
X168587381Y-110132857D01*
X168587381Y-110275715D01*
X168539762Y-110370953D01*
X168492143Y-110418572D01*
X167920714Y-110751905D02*
X167920714Y-111132857D01*
X167587381Y-110894762D02*
X168444524Y-110894762D01*
X168539762Y-110942381D01*
X168587381Y-111037619D01*
X168587381Y-111132857D01*
X168587381Y-112228096D02*
X167587381Y-112228096D01*
X167968333Y-112228096D02*
X167920714Y-112323334D01*
X167920714Y-112513811D01*
X167968333Y-112609049D01*
X168015952Y-112656668D01*
X168111190Y-112704287D01*
X168396905Y-112704287D01*
X168492143Y-112656668D01*
X168539762Y-112609049D01*
X168587381Y-112513811D01*
X168587381Y-112323334D01*
X168539762Y-112228096D01*
X168587381Y-113275715D02*
X168539762Y-113180477D01*
X168492143Y-113132858D01*
X168396905Y-113085239D01*
X168111190Y-113085239D01*
X168015952Y-113132858D01*
X167968333Y-113180477D01*
X167920714Y-113275715D01*
X167920714Y-113418573D01*
X167968333Y-113513811D01*
X168015952Y-113561430D01*
X168111190Y-113609049D01*
X168396905Y-113609049D01*
X168492143Y-113561430D01*
X168539762Y-113513811D01*
X168587381Y-113418573D01*
X168587381Y-113275715D01*
X168587381Y-114466192D02*
X168063571Y-114466192D01*
X167968333Y-114418573D01*
X167920714Y-114323335D01*
X167920714Y-114132858D01*
X167968333Y-114037620D01*
X168539762Y-114466192D02*
X168587381Y-114370954D01*
X168587381Y-114132858D01*
X168539762Y-114037620D01*
X168444524Y-113990001D01*
X168349286Y-113990001D01*
X168254048Y-114037620D01*
X168206429Y-114132858D01*
X168206429Y-114370954D01*
X168158810Y-114466192D01*
X168587381Y-114942382D02*
X167920714Y-114942382D01*
X168111190Y-114942382D02*
X168015952Y-114990001D01*
X167968333Y-115037620D01*
X167920714Y-115132858D01*
X167920714Y-115228097D01*
X168587381Y-115990002D02*
X167587381Y-115990002D01*
X168539762Y-115990002D02*
X168587381Y-115894764D01*
X168587381Y-115704287D01*
X168539762Y-115609049D01*
X168492143Y-115561430D01*
X168396905Y-115513811D01*
X168111190Y-115513811D01*
X168015952Y-115561430D01*
X167968333Y-115609049D01*
X167920714Y-115704287D01*
X167920714Y-115894764D01*
X167968333Y-115990002D01*
X170137381Y-108418572D02*
X169661190Y-108085238D01*
X170137381Y-107847143D02*
X169137381Y-107847143D01*
X169137381Y-108228096D01*
X169185000Y-108323334D01*
X169232619Y-108370953D01*
X169327857Y-108418572D01*
X169470714Y-108418572D01*
X169565952Y-108370953D01*
X169613571Y-108323334D01*
X169661190Y-108228096D01*
X169661190Y-107847143D01*
X170089762Y-109228096D02*
X170137381Y-109132858D01*
X170137381Y-108942381D01*
X170089762Y-108847143D01*
X169994524Y-108799524D01*
X169613571Y-108799524D01*
X169518333Y-108847143D01*
X169470714Y-108942381D01*
X169470714Y-109132858D01*
X169518333Y-109228096D01*
X169613571Y-109275715D01*
X169708810Y-109275715D01*
X169804048Y-108799524D01*
X169470714Y-109609048D02*
X170137381Y-109847143D01*
X169470714Y-110085239D01*
X169232619Y-111180477D02*
X169185000Y-111228096D01*
X169137381Y-111323334D01*
X169137381Y-111561430D01*
X169185000Y-111656668D01*
X169232619Y-111704287D01*
X169327857Y-111751906D01*
X169423095Y-111751906D01*
X169565952Y-111704287D01*
X170137381Y-111132858D01*
X170137381Y-111751906D01*
X170042143Y-112180477D02*
X170089762Y-112228096D01*
X170137381Y-112180477D01*
X170089762Y-112132858D01*
X170042143Y-112180477D01*
X170137381Y-112180477D01*
X169137381Y-112847143D02*
X169137381Y-112942382D01*
X169185000Y-113037620D01*
X169232619Y-113085239D01*
X169327857Y-113132858D01*
X169518333Y-113180477D01*
X169756429Y-113180477D01*
X169946905Y-113132858D01*
X170042143Y-113085239D01*
X170089762Y-113037620D01*
X170137381Y-112942382D01*
X170137381Y-112847143D01*
X170089762Y-112751905D01*
X170042143Y-112704286D01*
X169946905Y-112656667D01*
X169756429Y-112609048D01*
X169518333Y-112609048D01*
X169327857Y-112656667D01*
X169232619Y-112704286D01*
X169185000Y-112751905D01*
X169137381Y-112847143D01*
X171687381Y-103823332D02*
X170687381Y-103823332D01*
X171068333Y-103823332D02*
X171020714Y-103918570D01*
X171020714Y-104109047D01*
X171068333Y-104204285D01*
X171115952Y-104251904D01*
X171211190Y-104299523D01*
X171496905Y-104299523D01*
X171592143Y-104251904D01*
X171639762Y-104204285D01*
X171687381Y-104109047D01*
X171687381Y-103918570D01*
X171639762Y-103823332D01*
X171020714Y-104632856D02*
X171687381Y-104870951D01*
X171020714Y-105109047D02*
X171687381Y-104870951D01*
X171925476Y-104775713D01*
X171973095Y-104728094D01*
X172020714Y-104632856D01*
X171401667Y-106204285D02*
X171401667Y-106680476D01*
X171687381Y-106109047D02*
X170687381Y-106442380D01*
X171687381Y-106775714D01*
X171687381Y-107109047D02*
X171020714Y-107109047D01*
X171211190Y-107109047D02*
X171115952Y-107156666D01*
X171068333Y-107204285D01*
X171020714Y-107299523D01*
X171020714Y-107394762D01*
X171020714Y-107728095D02*
X171687381Y-107728095D01*
X171115952Y-107728095D02*
X171068333Y-107775714D01*
X171020714Y-107870952D01*
X171020714Y-108013810D01*
X171068333Y-108109048D01*
X171163571Y-108156667D01*
X171687381Y-108156667D01*
X171687381Y-109061429D02*
X171163571Y-109061429D01*
X171068333Y-109013810D01*
X171020714Y-108918572D01*
X171020714Y-108728095D01*
X171068333Y-108632857D01*
X171639762Y-109061429D02*
X171687381Y-108966191D01*
X171687381Y-108728095D01*
X171639762Y-108632857D01*
X171544524Y-108585238D01*
X171449286Y-108585238D01*
X171354048Y-108632857D01*
X171306429Y-108728095D01*
X171306429Y-108966191D01*
X171258810Y-109061429D01*
X171020714Y-109966191D02*
X171687381Y-109966191D01*
X171020714Y-109537619D02*
X171544524Y-109537619D01*
X171639762Y-109585238D01*
X171687381Y-109680476D01*
X171687381Y-109823334D01*
X171639762Y-109918572D01*
X171592143Y-109966191D01*
X171687381Y-110870953D02*
X170687381Y-110870953D01*
X171639762Y-110870953D02*
X171687381Y-110775715D01*
X171687381Y-110585238D01*
X171639762Y-110490000D01*
X171592143Y-110442381D01*
X171496905Y-110394762D01*
X171211190Y-110394762D01*
X171115952Y-110442381D01*
X171068333Y-110490000D01*
X171020714Y-110585238D01*
X171020714Y-110775715D01*
X171068333Y-110870953D01*
X171163571Y-112442382D02*
X171211190Y-112585239D01*
X171258810Y-112632858D01*
X171354048Y-112680477D01*
X171496905Y-112680477D01*
X171592143Y-112632858D01*
X171639762Y-112585239D01*
X171687381Y-112490001D01*
X171687381Y-112109048D01*
X170687381Y-112109048D01*
X170687381Y-112442382D01*
X170735000Y-112537620D01*
X170782619Y-112585239D01*
X170877857Y-112632858D01*
X170973095Y-112632858D01*
X171068333Y-112585239D01*
X171115952Y-112537620D01*
X171163571Y-112442382D01*
X171163571Y-112109048D01*
X171687381Y-113251905D02*
X171639762Y-113156667D01*
X171592143Y-113109048D01*
X171496905Y-113061429D01*
X171211190Y-113061429D01*
X171115952Y-113109048D01*
X171068333Y-113156667D01*
X171020714Y-113251905D01*
X171020714Y-113394763D01*
X171068333Y-113490001D01*
X171115952Y-113537620D01*
X171211190Y-113585239D01*
X171496905Y-113585239D01*
X171592143Y-113537620D01*
X171639762Y-113490001D01*
X171687381Y-113394763D01*
X171687381Y-113251905D01*
X171020714Y-114442382D02*
X171687381Y-114442382D01*
X171020714Y-114013810D02*
X171544524Y-114013810D01*
X171639762Y-114061429D01*
X171687381Y-114156667D01*
X171687381Y-114299525D01*
X171639762Y-114394763D01*
X171592143Y-114442382D01*
X171687381Y-115347144D02*
X170687381Y-115347144D01*
X171639762Y-115347144D02*
X171687381Y-115251906D01*
X171687381Y-115061429D01*
X171639762Y-114966191D01*
X171592143Y-114918572D01*
X171496905Y-114870953D01*
X171211190Y-114870953D01*
X171115952Y-114918572D01*
X171068333Y-114966191D01*
X171020714Y-115061429D01*
X171020714Y-115251906D01*
X171068333Y-115347144D01*
X171687381Y-115966191D02*
X171639762Y-115870953D01*
X171592143Y-115823334D01*
X171496905Y-115775715D01*
X171211190Y-115775715D01*
X171115952Y-115823334D01*
X171068333Y-115870953D01*
X171020714Y-115966191D01*
X171020714Y-116109049D01*
X171068333Y-116204287D01*
X171115952Y-116251906D01*
X171211190Y-116299525D01*
X171496905Y-116299525D01*
X171592143Y-116251906D01*
X171639762Y-116204287D01*
X171687381Y-116109049D01*
X171687381Y-115966191D01*
X171020714Y-117156668D02*
X171687381Y-117156668D01*
X171020714Y-116728096D02*
X171544524Y-116728096D01*
X171639762Y-116775715D01*
X171687381Y-116870953D01*
X171687381Y-117013811D01*
X171639762Y-117109049D01*
X171592143Y-117156668D01*
X167241220Y-100479860D02*
X166880540Y-101950520D01*
X166880540Y-101950520D02*
X166601140Y-100888800D01*
X166601140Y-100888800D02*
X166291260Y-101960680D01*
X166291260Y-101960680D02*
X165950900Y-100510340D01*
X168661080Y-101170740D02*
X167871140Y-101160580D01*
X167871140Y-101160580D02*
X167860980Y-101170740D01*
X167860980Y-101170740D02*
X167860980Y-101160580D01*
X167820340Y-100449380D02*
X167820340Y-101991160D01*
X168709340Y-100439220D02*
X168709340Y-102008940D01*
X168709340Y-102008940D02*
X168699180Y-101998780D01*
X169260520Y-100540820D02*
X169611040Y-100459540D01*
X169611040Y-100459540D02*
X169931080Y-100449380D01*
X169931080Y-100449380D02*
X170169840Y-100650040D01*
X170169840Y-100650040D02*
X170200320Y-100919280D01*
X170200320Y-100919280D02*
X169959020Y-101160580D01*
X169959020Y-101160580D02*
X169570400Y-101290120D01*
X169570400Y-101290120D02*
X169390060Y-101450140D01*
X169390060Y-101450140D02*
X169349420Y-101749860D01*
X169349420Y-101749860D02*
X169580560Y-101970840D01*
X169580560Y-101970840D02*
X169900600Y-101998780D01*
X169900600Y-101998780D02*
X170251120Y-101889560D01*
X171289980Y-100439220D02*
X171538900Y-100459540D01*
X171538900Y-100459540D02*
X171780200Y-100700840D01*
X171780200Y-100700840D02*
X171869100Y-101191060D01*
X171869100Y-101191060D02*
X171841160Y-101539040D01*
X171841160Y-101539040D02*
X171640500Y-101859080D01*
X171640500Y-101859080D02*
X171389040Y-101981000D01*
X171389040Y-101981000D02*
X171079160Y-101909880D01*
X171079160Y-101909880D02*
X170860720Y-101729540D01*
X170860720Y-101729540D02*
X170789600Y-101269800D01*
X170789600Y-101269800D02*
X170840400Y-100860860D01*
X170840400Y-100860860D02*
X170949620Y-100578920D01*
X170949620Y-100578920D02*
X171310300Y-100449380D01*
X170690540Y-98719640D02*
X170949620Y-99280980D01*
X170949620Y-99280980D02*
X170411140Y-99799140D01*
X170411140Y-99799140D02*
X169890440Y-99529900D01*
X169890440Y-99529900D02*
X169611040Y-99689920D01*
X168170860Y-99669600D02*
X167840660Y-99479100D01*
X167840660Y-99479100D02*
X167401240Y-99809300D01*
X167401240Y-99809300D02*
X166928800Y-99319080D01*
X166928800Y-99319080D02*
X167210740Y-98839020D01*
X167210740Y-98839020D02*
X167020240Y-98369120D01*
X167020240Y-98369120D02*
X166410640Y-98181160D01*
X166410640Y-98181160D02*
X166410640Y-97500440D01*
X166410640Y-97500440D02*
X166969440Y-97360740D01*
X166969440Y-97360740D02*
X167170100Y-96789240D01*
X167170100Y-96789240D02*
X166900860Y-96319340D01*
X166900860Y-96319340D02*
X167370760Y-95808800D01*
X167370760Y-95808800D02*
X167888920Y-96070420D01*
X167888920Y-96070420D02*
X168358820Y-95869760D01*
X168358820Y-95869760D02*
X168529000Y-95328740D01*
X168529000Y-95328740D02*
X169219880Y-95310960D01*
X169219880Y-95310960D02*
X169430700Y-95859600D01*
X169430700Y-95859600D02*
X169849800Y-96029780D01*
X169849800Y-96029780D02*
X170400980Y-95760540D01*
X170400980Y-95760540D02*
X170919140Y-96288860D01*
X170919140Y-96288860D02*
X170670220Y-96829880D01*
X170670220Y-96829880D02*
X170840400Y-97309940D01*
X170840400Y-97309940D02*
X171389040Y-97409000D01*
X171389040Y-97409000D02*
X171399200Y-98110040D01*
X171399200Y-98110040D02*
X170840400Y-98310700D01*
X170840400Y-98310700D02*
X170700700Y-98709480D01*
X168559480Y-98689160D02*
X168259760Y-98539300D01*
X168259760Y-98539300D02*
X168059100Y-98341180D01*
X168059100Y-98341180D02*
X167909240Y-97939860D01*
X167909240Y-97939860D02*
X167909240Y-97541080D01*
X167909240Y-97541080D02*
X168059100Y-97190560D01*
X168059100Y-97190560D02*
X168511220Y-96840040D01*
X168511220Y-96840040D02*
X168960800Y-96789240D01*
X168960800Y-96789240D02*
X169359580Y-96890840D01*
X169359580Y-96890840D02*
X169760900Y-97238820D01*
X169760900Y-97238820D02*
X169910760Y-97690940D01*
X169910760Y-97690940D02*
X169859960Y-98188780D01*
X169859960Y-98188780D02*
X169611040Y-98491040D01*
X169611040Y-98491040D02*
X169260520Y-98689160D01*
X169260520Y-98689160D02*
X169611040Y-99689920D01*
X168559480Y-98689160D02*
X168160700Y-99689920D01*
M02*
