G04 #@! TF.FileFunction,Copper,L1,Top,Signal*
%FSLAX46Y46*%
G04 Gerber Fmt 4.6, Leading zero omitted, Abs format (unit mm)*
G04 Created by KiCad (PCBNEW 4.0.2-stable) date Friday, 10 June 2016 'pmt' 15:57:06*
%MOMM*%
G01*
G04 APERTURE LIST*
%ADD10C,0.100000*%
%ADD11R,1.300000X1.300000*%
%ADD12C,1.300000*%
%ADD13R,1.727200X1.727200*%
%ADD14O,1.727200X1.727200*%
%ADD15R,2.032000X1.727200*%
%ADD16O,2.032000X1.727200*%
%ADD17C,0.254000*%
G04 APERTURE END LIST*
D10*
D11*
X163830000Y-114300000D03*
D12*
X161330000Y-114300000D03*
X163790000Y-109220000D03*
D11*
X161290000Y-109220000D03*
D13*
X163830000Y-104140000D03*
D14*
X161290000Y-104140000D03*
X163830000Y-101600000D03*
X161290000Y-101600000D03*
X163830000Y-99060000D03*
X161290000Y-99060000D03*
X163830000Y-96520000D03*
X161290000Y-96520000D03*
D15*
X177800000Y-114300000D03*
D16*
X177800000Y-111760000D03*
X177800000Y-109220000D03*
X177800000Y-106680000D03*
X177800000Y-104140000D03*
X177800000Y-101600000D03*
X177800000Y-99060000D03*
X177800000Y-96520000D03*
D15*
X173990000Y-114300000D03*
D16*
X173990000Y-111760000D03*
X173990000Y-109220000D03*
X173990000Y-106680000D03*
X173990000Y-104140000D03*
X173990000Y-101600000D03*
X173990000Y-99060000D03*
X173990000Y-96520000D03*
D17*
G36*
X180213000Y-117983000D02*
X157607000Y-117983000D01*
X157607000Y-114554481D01*
X160044777Y-114554481D01*
X160239995Y-115026943D01*
X160601155Y-115388735D01*
X161073276Y-115584777D01*
X161584481Y-115585223D01*
X162056943Y-115390005D01*
X162418735Y-115028845D01*
X162545000Y-114724765D01*
X162545000Y-115076310D01*
X162641673Y-115309699D01*
X162820302Y-115488327D01*
X163053691Y-115585000D01*
X163544250Y-115585000D01*
X163703000Y-115426250D01*
X163703000Y-114427000D01*
X163957000Y-114427000D01*
X163957000Y-115426250D01*
X164115750Y-115585000D01*
X164606309Y-115585000D01*
X164839698Y-115488327D01*
X165018327Y-115309699D01*
X165115000Y-115076310D01*
X165115000Y-114585750D01*
X172339000Y-114585750D01*
X172339000Y-115289910D01*
X172435673Y-115523299D01*
X172614302Y-115701927D01*
X172847691Y-115798600D01*
X173704250Y-115798600D01*
X173863000Y-115639850D01*
X173863000Y-114427000D01*
X174117000Y-114427000D01*
X174117000Y-115639850D01*
X174275750Y-115798600D01*
X175132309Y-115798600D01*
X175365698Y-115701927D01*
X175544327Y-115523299D01*
X175641000Y-115289910D01*
X175641000Y-114585750D01*
X176149000Y-114585750D01*
X176149000Y-115289910D01*
X176245673Y-115523299D01*
X176424302Y-115701927D01*
X176657691Y-115798600D01*
X177514250Y-115798600D01*
X177673000Y-115639850D01*
X177673000Y-114427000D01*
X177927000Y-114427000D01*
X177927000Y-115639850D01*
X178085750Y-115798600D01*
X178942309Y-115798600D01*
X179175698Y-115701927D01*
X179354327Y-115523299D01*
X179451000Y-115289910D01*
X179451000Y-114585750D01*
X179292250Y-114427000D01*
X177927000Y-114427000D01*
X177673000Y-114427000D01*
X176307750Y-114427000D01*
X176149000Y-114585750D01*
X175641000Y-114585750D01*
X175482250Y-114427000D01*
X174117000Y-114427000D01*
X173863000Y-114427000D01*
X172497750Y-114427000D01*
X172339000Y-114585750D01*
X165115000Y-114585750D01*
X164956250Y-114427000D01*
X163957000Y-114427000D01*
X163703000Y-114427000D01*
X163683000Y-114427000D01*
X163683000Y-114173000D01*
X163703000Y-114173000D01*
X163703000Y-113173750D01*
X163957000Y-113173750D01*
X163957000Y-114173000D01*
X164956250Y-114173000D01*
X165115000Y-114014250D01*
X165115000Y-113523690D01*
X165018327Y-113290301D01*
X164839698Y-113111673D01*
X164606309Y-113015000D01*
X164115750Y-113015000D01*
X163957000Y-113173750D01*
X163703000Y-113173750D01*
X163544250Y-113015000D01*
X163053691Y-113015000D01*
X162820302Y-113111673D01*
X162641673Y-113290301D01*
X162545000Y-113523690D01*
X162545000Y-113875567D01*
X162420005Y-113573057D01*
X162058845Y-113211265D01*
X161586724Y-113015223D01*
X161075519Y-113014777D01*
X160603057Y-113209995D01*
X160241265Y-113571155D01*
X160045223Y-114043276D01*
X160044777Y-114554481D01*
X157607000Y-114554481D01*
X157607000Y-108570000D01*
X159992560Y-108570000D01*
X159992560Y-109870000D01*
X160036838Y-110105317D01*
X160175910Y-110321441D01*
X160388110Y-110466431D01*
X160640000Y-110517440D01*
X161940000Y-110517440D01*
X162175317Y-110473162D01*
X162391441Y-110334090D01*
X162536431Y-110121890D01*
X162537012Y-110119016D01*
X163070590Y-110119016D01*
X163126271Y-110349611D01*
X163609078Y-110517622D01*
X164119428Y-110488083D01*
X164453729Y-110349611D01*
X164509410Y-110119016D01*
X163790000Y-109399605D01*
X163070590Y-110119016D01*
X162537012Y-110119016D01*
X162587440Y-109870000D01*
X162587440Y-109707615D01*
X162660389Y-109883729D01*
X162890984Y-109939410D01*
X163610395Y-109220000D01*
X163969605Y-109220000D01*
X164689016Y-109939410D01*
X164919611Y-109883729D01*
X165087622Y-109400922D01*
X165058083Y-108890572D01*
X164919611Y-108556271D01*
X164689016Y-108500590D01*
X163969605Y-109220000D01*
X163610395Y-109220000D01*
X162890984Y-108500590D01*
X162660389Y-108556271D01*
X162587440Y-108765902D01*
X162587440Y-108570000D01*
X162543162Y-108334683D01*
X162534347Y-108320984D01*
X163070590Y-108320984D01*
X163790000Y-109040395D01*
X164509410Y-108320984D01*
X164453729Y-108090389D01*
X163970922Y-107922378D01*
X163460572Y-107951917D01*
X163126271Y-108090389D01*
X163070590Y-108320984D01*
X162534347Y-108320984D01*
X162404090Y-108118559D01*
X162191890Y-107973569D01*
X161940000Y-107922560D01*
X160640000Y-107922560D01*
X160404683Y-107966838D01*
X160188559Y-108105910D01*
X160043569Y-108318110D01*
X159992560Y-108570000D01*
X157607000Y-108570000D01*
X157607000Y-96520000D01*
X159762041Y-96520000D01*
X159876115Y-97093489D01*
X160200971Y-97579670D01*
X160515752Y-97790000D01*
X160200971Y-98000330D01*
X159876115Y-98486511D01*
X159762041Y-99060000D01*
X159876115Y-99633489D01*
X160200971Y-100119670D01*
X160515752Y-100330000D01*
X160200971Y-100540330D01*
X159876115Y-101026511D01*
X159762041Y-101600000D01*
X159876115Y-102173489D01*
X160200971Y-102659670D01*
X160515752Y-102870000D01*
X160200971Y-103080330D01*
X159876115Y-103566511D01*
X159762041Y-104140000D01*
X159876115Y-104713489D01*
X160200971Y-105199670D01*
X160687152Y-105524526D01*
X161260641Y-105638600D01*
X161319359Y-105638600D01*
X161892848Y-105524526D01*
X162364356Y-105209474D01*
X162428073Y-105363299D01*
X162606702Y-105541927D01*
X162840091Y-105638600D01*
X163544250Y-105638600D01*
X163703000Y-105479850D01*
X163703000Y-104267000D01*
X163957000Y-104267000D01*
X163957000Y-105479850D01*
X164115750Y-105638600D01*
X164819909Y-105638600D01*
X165053298Y-105541927D01*
X165231927Y-105363299D01*
X165328600Y-105129910D01*
X165328600Y-104425750D01*
X165169850Y-104267000D01*
X163957000Y-104267000D01*
X163703000Y-104267000D01*
X163683000Y-104267000D01*
X163683000Y-104013000D01*
X163703000Y-104013000D01*
X163703000Y-103993000D01*
X163957000Y-103993000D01*
X163957000Y-104013000D01*
X165169850Y-104013000D01*
X165328600Y-103854250D01*
X165328600Y-103150090D01*
X165231927Y-102916701D01*
X165053298Y-102738073D01*
X164897977Y-102673737D01*
X164919029Y-102659670D01*
X165243885Y-102173489D01*
X165357959Y-101600000D01*
X165243885Y-101026511D01*
X164919029Y-100540330D01*
X164604248Y-100330000D01*
X164919029Y-100119670D01*
X165243885Y-99633489D01*
X165357959Y-99060000D01*
X165243885Y-98486511D01*
X164919029Y-98000330D01*
X164604248Y-97790000D01*
X164919029Y-97579670D01*
X165243885Y-97093489D01*
X165357959Y-96520000D01*
X172306655Y-96520000D01*
X172420729Y-97093489D01*
X172745585Y-97579670D01*
X173060366Y-97790000D01*
X172745585Y-98000330D01*
X172420729Y-98486511D01*
X172306655Y-99060000D01*
X172420729Y-99633489D01*
X172745585Y-100119670D01*
X173060366Y-100330000D01*
X172745585Y-100540330D01*
X172420729Y-101026511D01*
X172306655Y-101600000D01*
X172420729Y-102173489D01*
X172745585Y-102659670D01*
X173060366Y-102870000D01*
X172745585Y-103080330D01*
X172420729Y-103566511D01*
X172306655Y-104140000D01*
X172420729Y-104713489D01*
X172745585Y-105199670D01*
X173060366Y-105410000D01*
X172745585Y-105620330D01*
X172420729Y-106106511D01*
X172306655Y-106680000D01*
X172420729Y-107253489D01*
X172745585Y-107739670D01*
X173060366Y-107950000D01*
X172745585Y-108160330D01*
X172420729Y-108646511D01*
X172306655Y-109220000D01*
X172420729Y-109793489D01*
X172745585Y-110279670D01*
X173060366Y-110490000D01*
X172745585Y-110700330D01*
X172420729Y-111186511D01*
X172306655Y-111760000D01*
X172420729Y-112333489D01*
X172745585Y-112819670D01*
X172767780Y-112834500D01*
X172614302Y-112898073D01*
X172435673Y-113076701D01*
X172339000Y-113310090D01*
X172339000Y-114014250D01*
X172497750Y-114173000D01*
X173863000Y-114173000D01*
X173863000Y-114153000D01*
X174117000Y-114153000D01*
X174117000Y-114173000D01*
X175482250Y-114173000D01*
X175641000Y-114014250D01*
X175641000Y-113310090D01*
X175544327Y-113076701D01*
X175365698Y-112898073D01*
X175212220Y-112834500D01*
X175234415Y-112819670D01*
X175559271Y-112333489D01*
X175673345Y-111760000D01*
X175559271Y-111186511D01*
X175234415Y-110700330D01*
X174919634Y-110490000D01*
X175234415Y-110279670D01*
X175559271Y-109793489D01*
X175673345Y-109220000D01*
X175559271Y-108646511D01*
X175234415Y-108160330D01*
X174919634Y-107950000D01*
X175234415Y-107739670D01*
X175559271Y-107253489D01*
X175673345Y-106680000D01*
X175559271Y-106106511D01*
X175234415Y-105620330D01*
X174919634Y-105410000D01*
X175234415Y-105199670D01*
X175559271Y-104713489D01*
X175673345Y-104140000D01*
X175559271Y-103566511D01*
X175234415Y-103080330D01*
X174919634Y-102870000D01*
X175234415Y-102659670D01*
X175559271Y-102173489D01*
X175673345Y-101600000D01*
X175559271Y-101026511D01*
X175234415Y-100540330D01*
X174919634Y-100330000D01*
X175234415Y-100119670D01*
X175559271Y-99633489D01*
X175673345Y-99060000D01*
X175559271Y-98486511D01*
X175234415Y-98000330D01*
X174919634Y-97790000D01*
X175234415Y-97579670D01*
X175559271Y-97093489D01*
X175673345Y-96520000D01*
X176116655Y-96520000D01*
X176230729Y-97093489D01*
X176555585Y-97579670D01*
X176870366Y-97790000D01*
X176555585Y-98000330D01*
X176230729Y-98486511D01*
X176116655Y-99060000D01*
X176230729Y-99633489D01*
X176555585Y-100119670D01*
X176870366Y-100330000D01*
X176555585Y-100540330D01*
X176230729Y-101026511D01*
X176116655Y-101600000D01*
X176230729Y-102173489D01*
X176555585Y-102659670D01*
X176870366Y-102870000D01*
X176555585Y-103080330D01*
X176230729Y-103566511D01*
X176116655Y-104140000D01*
X176230729Y-104713489D01*
X176555585Y-105199670D01*
X176870366Y-105410000D01*
X176555585Y-105620330D01*
X176230729Y-106106511D01*
X176116655Y-106680000D01*
X176230729Y-107253489D01*
X176555585Y-107739670D01*
X176870366Y-107950000D01*
X176555585Y-108160330D01*
X176230729Y-108646511D01*
X176116655Y-109220000D01*
X176230729Y-109793489D01*
X176555585Y-110279670D01*
X176870366Y-110490000D01*
X176555585Y-110700330D01*
X176230729Y-111186511D01*
X176116655Y-111760000D01*
X176230729Y-112333489D01*
X176555585Y-112819670D01*
X176577780Y-112834500D01*
X176424302Y-112898073D01*
X176245673Y-113076701D01*
X176149000Y-113310090D01*
X176149000Y-114014250D01*
X176307750Y-114173000D01*
X177673000Y-114173000D01*
X177673000Y-114153000D01*
X177927000Y-114153000D01*
X177927000Y-114173000D01*
X179292250Y-114173000D01*
X179451000Y-114014250D01*
X179451000Y-113310090D01*
X179354327Y-113076701D01*
X179175698Y-112898073D01*
X179022220Y-112834500D01*
X179044415Y-112819670D01*
X179369271Y-112333489D01*
X179483345Y-111760000D01*
X179369271Y-111186511D01*
X179044415Y-110700330D01*
X178729634Y-110490000D01*
X179044415Y-110279670D01*
X179369271Y-109793489D01*
X179483345Y-109220000D01*
X179369271Y-108646511D01*
X179044415Y-108160330D01*
X178729634Y-107950000D01*
X179044415Y-107739670D01*
X179369271Y-107253489D01*
X179483345Y-106680000D01*
X179369271Y-106106511D01*
X179044415Y-105620330D01*
X178729634Y-105410000D01*
X179044415Y-105199670D01*
X179369271Y-104713489D01*
X179483345Y-104140000D01*
X179369271Y-103566511D01*
X179044415Y-103080330D01*
X178729634Y-102870000D01*
X179044415Y-102659670D01*
X179369271Y-102173489D01*
X179483345Y-101600000D01*
X179369271Y-101026511D01*
X179044415Y-100540330D01*
X178729634Y-100330000D01*
X179044415Y-100119670D01*
X179369271Y-99633489D01*
X179483345Y-99060000D01*
X179369271Y-98486511D01*
X179044415Y-98000330D01*
X178729634Y-97790000D01*
X179044415Y-97579670D01*
X179369271Y-97093489D01*
X179483345Y-96520000D01*
X179369271Y-95946511D01*
X179044415Y-95460330D01*
X178558234Y-95135474D01*
X177984745Y-95021400D01*
X177615255Y-95021400D01*
X177041766Y-95135474D01*
X176555585Y-95460330D01*
X176230729Y-95946511D01*
X176116655Y-96520000D01*
X175673345Y-96520000D01*
X175559271Y-95946511D01*
X175234415Y-95460330D01*
X174748234Y-95135474D01*
X174174745Y-95021400D01*
X173805255Y-95021400D01*
X173231766Y-95135474D01*
X172745585Y-95460330D01*
X172420729Y-95946511D01*
X172306655Y-96520000D01*
X165357959Y-96520000D01*
X165243885Y-95946511D01*
X164919029Y-95460330D01*
X164432848Y-95135474D01*
X163859359Y-95021400D01*
X163800641Y-95021400D01*
X163227152Y-95135474D01*
X162740971Y-95460330D01*
X162560000Y-95731172D01*
X162379029Y-95460330D01*
X161892848Y-95135474D01*
X161319359Y-95021400D01*
X161260641Y-95021400D01*
X160687152Y-95135474D01*
X160200971Y-95460330D01*
X159876115Y-95946511D01*
X159762041Y-96520000D01*
X157607000Y-96520000D01*
X157607000Y-94107000D01*
X180213000Y-94107000D01*
X180213000Y-117983000D01*
X180213000Y-117983000D01*
G37*
X180213000Y-117983000D02*
X157607000Y-117983000D01*
X157607000Y-114554481D01*
X160044777Y-114554481D01*
X160239995Y-115026943D01*
X160601155Y-115388735D01*
X161073276Y-115584777D01*
X161584481Y-115585223D01*
X162056943Y-115390005D01*
X162418735Y-115028845D01*
X162545000Y-114724765D01*
X162545000Y-115076310D01*
X162641673Y-115309699D01*
X162820302Y-115488327D01*
X163053691Y-115585000D01*
X163544250Y-115585000D01*
X163703000Y-115426250D01*
X163703000Y-114427000D01*
X163957000Y-114427000D01*
X163957000Y-115426250D01*
X164115750Y-115585000D01*
X164606309Y-115585000D01*
X164839698Y-115488327D01*
X165018327Y-115309699D01*
X165115000Y-115076310D01*
X165115000Y-114585750D01*
X172339000Y-114585750D01*
X172339000Y-115289910D01*
X172435673Y-115523299D01*
X172614302Y-115701927D01*
X172847691Y-115798600D01*
X173704250Y-115798600D01*
X173863000Y-115639850D01*
X173863000Y-114427000D01*
X174117000Y-114427000D01*
X174117000Y-115639850D01*
X174275750Y-115798600D01*
X175132309Y-115798600D01*
X175365698Y-115701927D01*
X175544327Y-115523299D01*
X175641000Y-115289910D01*
X175641000Y-114585750D01*
X176149000Y-114585750D01*
X176149000Y-115289910D01*
X176245673Y-115523299D01*
X176424302Y-115701927D01*
X176657691Y-115798600D01*
X177514250Y-115798600D01*
X177673000Y-115639850D01*
X177673000Y-114427000D01*
X177927000Y-114427000D01*
X177927000Y-115639850D01*
X178085750Y-115798600D01*
X178942309Y-115798600D01*
X179175698Y-115701927D01*
X179354327Y-115523299D01*
X179451000Y-115289910D01*
X179451000Y-114585750D01*
X179292250Y-114427000D01*
X177927000Y-114427000D01*
X177673000Y-114427000D01*
X176307750Y-114427000D01*
X176149000Y-114585750D01*
X175641000Y-114585750D01*
X175482250Y-114427000D01*
X174117000Y-114427000D01*
X173863000Y-114427000D01*
X172497750Y-114427000D01*
X172339000Y-114585750D01*
X165115000Y-114585750D01*
X164956250Y-114427000D01*
X163957000Y-114427000D01*
X163703000Y-114427000D01*
X163683000Y-114427000D01*
X163683000Y-114173000D01*
X163703000Y-114173000D01*
X163703000Y-113173750D01*
X163957000Y-113173750D01*
X163957000Y-114173000D01*
X164956250Y-114173000D01*
X165115000Y-114014250D01*
X165115000Y-113523690D01*
X165018327Y-113290301D01*
X164839698Y-113111673D01*
X164606309Y-113015000D01*
X164115750Y-113015000D01*
X163957000Y-113173750D01*
X163703000Y-113173750D01*
X163544250Y-113015000D01*
X163053691Y-113015000D01*
X162820302Y-113111673D01*
X162641673Y-113290301D01*
X162545000Y-113523690D01*
X162545000Y-113875567D01*
X162420005Y-113573057D01*
X162058845Y-113211265D01*
X161586724Y-113015223D01*
X161075519Y-113014777D01*
X160603057Y-113209995D01*
X160241265Y-113571155D01*
X160045223Y-114043276D01*
X160044777Y-114554481D01*
X157607000Y-114554481D01*
X157607000Y-108570000D01*
X159992560Y-108570000D01*
X159992560Y-109870000D01*
X160036838Y-110105317D01*
X160175910Y-110321441D01*
X160388110Y-110466431D01*
X160640000Y-110517440D01*
X161940000Y-110517440D01*
X162175317Y-110473162D01*
X162391441Y-110334090D01*
X162536431Y-110121890D01*
X162537012Y-110119016D01*
X163070590Y-110119016D01*
X163126271Y-110349611D01*
X163609078Y-110517622D01*
X164119428Y-110488083D01*
X164453729Y-110349611D01*
X164509410Y-110119016D01*
X163790000Y-109399605D01*
X163070590Y-110119016D01*
X162537012Y-110119016D01*
X162587440Y-109870000D01*
X162587440Y-109707615D01*
X162660389Y-109883729D01*
X162890984Y-109939410D01*
X163610395Y-109220000D01*
X163969605Y-109220000D01*
X164689016Y-109939410D01*
X164919611Y-109883729D01*
X165087622Y-109400922D01*
X165058083Y-108890572D01*
X164919611Y-108556271D01*
X164689016Y-108500590D01*
X163969605Y-109220000D01*
X163610395Y-109220000D01*
X162890984Y-108500590D01*
X162660389Y-108556271D01*
X162587440Y-108765902D01*
X162587440Y-108570000D01*
X162543162Y-108334683D01*
X162534347Y-108320984D01*
X163070590Y-108320984D01*
X163790000Y-109040395D01*
X164509410Y-108320984D01*
X164453729Y-108090389D01*
X163970922Y-107922378D01*
X163460572Y-107951917D01*
X163126271Y-108090389D01*
X163070590Y-108320984D01*
X162534347Y-108320984D01*
X162404090Y-108118559D01*
X162191890Y-107973569D01*
X161940000Y-107922560D01*
X160640000Y-107922560D01*
X160404683Y-107966838D01*
X160188559Y-108105910D01*
X160043569Y-108318110D01*
X159992560Y-108570000D01*
X157607000Y-108570000D01*
X157607000Y-96520000D01*
X159762041Y-96520000D01*
X159876115Y-97093489D01*
X160200971Y-97579670D01*
X160515752Y-97790000D01*
X160200971Y-98000330D01*
X159876115Y-98486511D01*
X159762041Y-99060000D01*
X159876115Y-99633489D01*
X160200971Y-100119670D01*
X160515752Y-100330000D01*
X160200971Y-100540330D01*
X159876115Y-101026511D01*
X159762041Y-101600000D01*
X159876115Y-102173489D01*
X160200971Y-102659670D01*
X160515752Y-102870000D01*
X160200971Y-103080330D01*
X159876115Y-103566511D01*
X159762041Y-104140000D01*
X159876115Y-104713489D01*
X160200971Y-105199670D01*
X160687152Y-105524526D01*
X161260641Y-105638600D01*
X161319359Y-105638600D01*
X161892848Y-105524526D01*
X162364356Y-105209474D01*
X162428073Y-105363299D01*
X162606702Y-105541927D01*
X162840091Y-105638600D01*
X163544250Y-105638600D01*
X163703000Y-105479850D01*
X163703000Y-104267000D01*
X163957000Y-104267000D01*
X163957000Y-105479850D01*
X164115750Y-105638600D01*
X164819909Y-105638600D01*
X165053298Y-105541927D01*
X165231927Y-105363299D01*
X165328600Y-105129910D01*
X165328600Y-104425750D01*
X165169850Y-104267000D01*
X163957000Y-104267000D01*
X163703000Y-104267000D01*
X163683000Y-104267000D01*
X163683000Y-104013000D01*
X163703000Y-104013000D01*
X163703000Y-103993000D01*
X163957000Y-103993000D01*
X163957000Y-104013000D01*
X165169850Y-104013000D01*
X165328600Y-103854250D01*
X165328600Y-103150090D01*
X165231927Y-102916701D01*
X165053298Y-102738073D01*
X164897977Y-102673737D01*
X164919029Y-102659670D01*
X165243885Y-102173489D01*
X165357959Y-101600000D01*
X165243885Y-101026511D01*
X164919029Y-100540330D01*
X164604248Y-100330000D01*
X164919029Y-100119670D01*
X165243885Y-99633489D01*
X165357959Y-99060000D01*
X165243885Y-98486511D01*
X164919029Y-98000330D01*
X164604248Y-97790000D01*
X164919029Y-97579670D01*
X165243885Y-97093489D01*
X165357959Y-96520000D01*
X172306655Y-96520000D01*
X172420729Y-97093489D01*
X172745585Y-97579670D01*
X173060366Y-97790000D01*
X172745585Y-98000330D01*
X172420729Y-98486511D01*
X172306655Y-99060000D01*
X172420729Y-99633489D01*
X172745585Y-100119670D01*
X173060366Y-100330000D01*
X172745585Y-100540330D01*
X172420729Y-101026511D01*
X172306655Y-101600000D01*
X172420729Y-102173489D01*
X172745585Y-102659670D01*
X173060366Y-102870000D01*
X172745585Y-103080330D01*
X172420729Y-103566511D01*
X172306655Y-104140000D01*
X172420729Y-104713489D01*
X172745585Y-105199670D01*
X173060366Y-105410000D01*
X172745585Y-105620330D01*
X172420729Y-106106511D01*
X172306655Y-106680000D01*
X172420729Y-107253489D01*
X172745585Y-107739670D01*
X173060366Y-107950000D01*
X172745585Y-108160330D01*
X172420729Y-108646511D01*
X172306655Y-109220000D01*
X172420729Y-109793489D01*
X172745585Y-110279670D01*
X173060366Y-110490000D01*
X172745585Y-110700330D01*
X172420729Y-111186511D01*
X172306655Y-111760000D01*
X172420729Y-112333489D01*
X172745585Y-112819670D01*
X172767780Y-112834500D01*
X172614302Y-112898073D01*
X172435673Y-113076701D01*
X172339000Y-113310090D01*
X172339000Y-114014250D01*
X172497750Y-114173000D01*
X173863000Y-114173000D01*
X173863000Y-114153000D01*
X174117000Y-114153000D01*
X174117000Y-114173000D01*
X175482250Y-114173000D01*
X175641000Y-114014250D01*
X175641000Y-113310090D01*
X175544327Y-113076701D01*
X175365698Y-112898073D01*
X175212220Y-112834500D01*
X175234415Y-112819670D01*
X175559271Y-112333489D01*
X175673345Y-111760000D01*
X175559271Y-111186511D01*
X175234415Y-110700330D01*
X174919634Y-110490000D01*
X175234415Y-110279670D01*
X175559271Y-109793489D01*
X175673345Y-109220000D01*
X175559271Y-108646511D01*
X175234415Y-108160330D01*
X174919634Y-107950000D01*
X175234415Y-107739670D01*
X175559271Y-107253489D01*
X175673345Y-106680000D01*
X175559271Y-106106511D01*
X175234415Y-105620330D01*
X174919634Y-105410000D01*
X175234415Y-105199670D01*
X175559271Y-104713489D01*
X175673345Y-104140000D01*
X175559271Y-103566511D01*
X175234415Y-103080330D01*
X174919634Y-102870000D01*
X175234415Y-102659670D01*
X175559271Y-102173489D01*
X175673345Y-101600000D01*
X175559271Y-101026511D01*
X175234415Y-100540330D01*
X174919634Y-100330000D01*
X175234415Y-100119670D01*
X175559271Y-99633489D01*
X175673345Y-99060000D01*
X175559271Y-98486511D01*
X175234415Y-98000330D01*
X174919634Y-97790000D01*
X175234415Y-97579670D01*
X175559271Y-97093489D01*
X175673345Y-96520000D01*
X176116655Y-96520000D01*
X176230729Y-97093489D01*
X176555585Y-97579670D01*
X176870366Y-97790000D01*
X176555585Y-98000330D01*
X176230729Y-98486511D01*
X176116655Y-99060000D01*
X176230729Y-99633489D01*
X176555585Y-100119670D01*
X176870366Y-100330000D01*
X176555585Y-100540330D01*
X176230729Y-101026511D01*
X176116655Y-101600000D01*
X176230729Y-102173489D01*
X176555585Y-102659670D01*
X176870366Y-102870000D01*
X176555585Y-103080330D01*
X176230729Y-103566511D01*
X176116655Y-104140000D01*
X176230729Y-104713489D01*
X176555585Y-105199670D01*
X176870366Y-105410000D01*
X176555585Y-105620330D01*
X176230729Y-106106511D01*
X176116655Y-106680000D01*
X176230729Y-107253489D01*
X176555585Y-107739670D01*
X176870366Y-107950000D01*
X176555585Y-108160330D01*
X176230729Y-108646511D01*
X176116655Y-109220000D01*
X176230729Y-109793489D01*
X176555585Y-110279670D01*
X176870366Y-110490000D01*
X176555585Y-110700330D01*
X176230729Y-111186511D01*
X176116655Y-111760000D01*
X176230729Y-112333489D01*
X176555585Y-112819670D01*
X176577780Y-112834500D01*
X176424302Y-112898073D01*
X176245673Y-113076701D01*
X176149000Y-113310090D01*
X176149000Y-114014250D01*
X176307750Y-114173000D01*
X177673000Y-114173000D01*
X177673000Y-114153000D01*
X177927000Y-114153000D01*
X177927000Y-114173000D01*
X179292250Y-114173000D01*
X179451000Y-114014250D01*
X179451000Y-113310090D01*
X179354327Y-113076701D01*
X179175698Y-112898073D01*
X179022220Y-112834500D01*
X179044415Y-112819670D01*
X179369271Y-112333489D01*
X179483345Y-111760000D01*
X179369271Y-111186511D01*
X179044415Y-110700330D01*
X178729634Y-110490000D01*
X179044415Y-110279670D01*
X179369271Y-109793489D01*
X179483345Y-109220000D01*
X179369271Y-108646511D01*
X179044415Y-108160330D01*
X178729634Y-107950000D01*
X179044415Y-107739670D01*
X179369271Y-107253489D01*
X179483345Y-106680000D01*
X179369271Y-106106511D01*
X179044415Y-105620330D01*
X178729634Y-105410000D01*
X179044415Y-105199670D01*
X179369271Y-104713489D01*
X179483345Y-104140000D01*
X179369271Y-103566511D01*
X179044415Y-103080330D01*
X178729634Y-102870000D01*
X179044415Y-102659670D01*
X179369271Y-102173489D01*
X179483345Y-101600000D01*
X179369271Y-101026511D01*
X179044415Y-100540330D01*
X178729634Y-100330000D01*
X179044415Y-100119670D01*
X179369271Y-99633489D01*
X179483345Y-99060000D01*
X179369271Y-98486511D01*
X179044415Y-98000330D01*
X178729634Y-97790000D01*
X179044415Y-97579670D01*
X179369271Y-97093489D01*
X179483345Y-96520000D01*
X179369271Y-95946511D01*
X179044415Y-95460330D01*
X178558234Y-95135474D01*
X177984745Y-95021400D01*
X177615255Y-95021400D01*
X177041766Y-95135474D01*
X176555585Y-95460330D01*
X176230729Y-95946511D01*
X176116655Y-96520000D01*
X175673345Y-96520000D01*
X175559271Y-95946511D01*
X175234415Y-95460330D01*
X174748234Y-95135474D01*
X174174745Y-95021400D01*
X173805255Y-95021400D01*
X173231766Y-95135474D01*
X172745585Y-95460330D01*
X172420729Y-95946511D01*
X172306655Y-96520000D01*
X165357959Y-96520000D01*
X165243885Y-95946511D01*
X164919029Y-95460330D01*
X164432848Y-95135474D01*
X163859359Y-95021400D01*
X163800641Y-95021400D01*
X163227152Y-95135474D01*
X162740971Y-95460330D01*
X162560000Y-95731172D01*
X162379029Y-95460330D01*
X161892848Y-95135474D01*
X161319359Y-95021400D01*
X161260641Y-95021400D01*
X160687152Y-95135474D01*
X160200971Y-95460330D01*
X159876115Y-95946511D01*
X159762041Y-96520000D01*
X157607000Y-96520000D01*
X157607000Y-94107000D01*
X180213000Y-94107000D01*
X180213000Y-117983000D01*
M02*
