G04 #@! TF.FileFunction,Copper,L1,Top,Signal*
%FSLAX46Y46*%
G04 Gerber Fmt 4.6, Leading zero omitted, Abs format (unit mm)*
G04 Created by KiCad (PCBNEW 4.0.2-stable) date Friday, 27 May 2016 'pmt' 12:53:24*
%MOMM*%
G01*
G04 APERTURE LIST*
%ADD10C,0.100000*%
%ADD11R,1.300000X1.300000*%
%ADD12C,1.300000*%
%ADD13R,1.727200X1.727200*%
%ADD14O,1.727200X1.727200*%
%ADD15R,2.032000X1.727200*%
%ADD16O,2.032000X1.727200*%
%ADD17C,1.000000*%
%ADD18C,0.254000*%
G04 APERTURE END LIST*
D10*
D11*
X158750000Y-123190000D03*
D12*
X156250000Y-123190000D03*
X158710000Y-115570000D03*
D11*
X156210000Y-115570000D03*
D13*
X158750000Y-109220000D03*
D14*
X156210000Y-109220000D03*
X158750000Y-106680000D03*
X156210000Y-106680000D03*
X158750000Y-104140000D03*
X156210000Y-104140000D03*
X158750000Y-101600000D03*
X156210000Y-101600000D03*
D15*
X177800000Y-114300000D03*
D16*
X177800000Y-111760000D03*
X177800000Y-109220000D03*
X177800000Y-106680000D03*
X177800000Y-104140000D03*
X177800000Y-101600000D03*
X177800000Y-99060000D03*
X177800000Y-96520000D03*
D15*
X173990000Y-114300000D03*
D16*
X173990000Y-111760000D03*
X173990000Y-109220000D03*
X173990000Y-106680000D03*
X173990000Y-104140000D03*
X173990000Y-101600000D03*
X173990000Y-99060000D03*
X173990000Y-96520000D03*
D17*
X156210000Y-115570000D02*
X156250000Y-115610000D01*
D18*
G36*
X179630000Y-125020000D02*
X154380000Y-125020000D01*
X154380000Y-123444481D01*
X154964777Y-123444481D01*
X155159995Y-123916943D01*
X155521155Y-124278735D01*
X155993276Y-124474777D01*
X156504481Y-124475223D01*
X156976943Y-124280005D01*
X157338735Y-123918845D01*
X157465000Y-123614765D01*
X157465000Y-123966310D01*
X157561673Y-124199699D01*
X157740302Y-124378327D01*
X157973691Y-124475000D01*
X158464250Y-124475000D01*
X158623000Y-124316250D01*
X158623000Y-123317000D01*
X158877000Y-123317000D01*
X158877000Y-124316250D01*
X159035750Y-124475000D01*
X159526309Y-124475000D01*
X159759698Y-124378327D01*
X159938327Y-124199699D01*
X160035000Y-123966310D01*
X160035000Y-123475750D01*
X159876250Y-123317000D01*
X158877000Y-123317000D01*
X158623000Y-123317000D01*
X158603000Y-123317000D01*
X158603000Y-123063000D01*
X158623000Y-123063000D01*
X158623000Y-122063750D01*
X158877000Y-122063750D01*
X158877000Y-123063000D01*
X159876250Y-123063000D01*
X160035000Y-122904250D01*
X160035000Y-122413690D01*
X159938327Y-122180301D01*
X159759698Y-122001673D01*
X159526309Y-121905000D01*
X159035750Y-121905000D01*
X158877000Y-122063750D01*
X158623000Y-122063750D01*
X158464250Y-121905000D01*
X157973691Y-121905000D01*
X157740302Y-122001673D01*
X157561673Y-122180301D01*
X157465000Y-122413690D01*
X157465000Y-122765567D01*
X157340005Y-122463057D01*
X156978845Y-122101265D01*
X156506724Y-121905223D01*
X155995519Y-121904777D01*
X155523057Y-122099995D01*
X155161265Y-122461155D01*
X154965223Y-122933276D01*
X154964777Y-123444481D01*
X154380000Y-123444481D01*
X154380000Y-114920000D01*
X154912560Y-114920000D01*
X154912560Y-116220000D01*
X154956838Y-116455317D01*
X155095910Y-116671441D01*
X155308110Y-116816431D01*
X155560000Y-116867440D01*
X156860000Y-116867440D01*
X157095317Y-116823162D01*
X157311441Y-116684090D01*
X157456431Y-116471890D01*
X157457012Y-116469016D01*
X157990590Y-116469016D01*
X158046271Y-116699611D01*
X158529078Y-116867622D01*
X159039428Y-116838083D01*
X159373729Y-116699611D01*
X159429410Y-116469016D01*
X158710000Y-115749605D01*
X157990590Y-116469016D01*
X157457012Y-116469016D01*
X157507440Y-116220000D01*
X157507440Y-116057615D01*
X157580389Y-116233729D01*
X157810984Y-116289410D01*
X158530395Y-115570000D01*
X158889605Y-115570000D01*
X159609016Y-116289410D01*
X159839611Y-116233729D01*
X160007622Y-115750922D01*
X159978083Y-115240572D01*
X159839611Y-114906271D01*
X159609016Y-114850590D01*
X158889605Y-115570000D01*
X158530395Y-115570000D01*
X157810984Y-114850590D01*
X157580389Y-114906271D01*
X157507440Y-115115902D01*
X157507440Y-114920000D01*
X157463162Y-114684683D01*
X157454347Y-114670984D01*
X157990590Y-114670984D01*
X158710000Y-115390395D01*
X159429410Y-114670984D01*
X159408829Y-114585750D01*
X172339000Y-114585750D01*
X172339000Y-115289910D01*
X172435673Y-115523299D01*
X172614302Y-115701927D01*
X172847691Y-115798600D01*
X173704250Y-115798600D01*
X173863000Y-115639850D01*
X173863000Y-114427000D01*
X174117000Y-114427000D01*
X174117000Y-115639850D01*
X174275750Y-115798600D01*
X175132309Y-115798600D01*
X175365698Y-115701927D01*
X175544327Y-115523299D01*
X175641000Y-115289910D01*
X175641000Y-114585750D01*
X176149000Y-114585750D01*
X176149000Y-115289910D01*
X176245673Y-115523299D01*
X176424302Y-115701927D01*
X176657691Y-115798600D01*
X177514250Y-115798600D01*
X177673000Y-115639850D01*
X177673000Y-114427000D01*
X177927000Y-114427000D01*
X177927000Y-115639850D01*
X178085750Y-115798600D01*
X178942309Y-115798600D01*
X179175698Y-115701927D01*
X179354327Y-115523299D01*
X179451000Y-115289910D01*
X179451000Y-114585750D01*
X179292250Y-114427000D01*
X177927000Y-114427000D01*
X177673000Y-114427000D01*
X176307750Y-114427000D01*
X176149000Y-114585750D01*
X175641000Y-114585750D01*
X175482250Y-114427000D01*
X174117000Y-114427000D01*
X173863000Y-114427000D01*
X172497750Y-114427000D01*
X172339000Y-114585750D01*
X159408829Y-114585750D01*
X159373729Y-114440389D01*
X158890922Y-114272378D01*
X158380572Y-114301917D01*
X158046271Y-114440389D01*
X157990590Y-114670984D01*
X157454347Y-114670984D01*
X157324090Y-114468559D01*
X157111890Y-114323569D01*
X156860000Y-114272560D01*
X155560000Y-114272560D01*
X155324683Y-114316838D01*
X155108559Y-114455910D01*
X154963569Y-114668110D01*
X154912560Y-114920000D01*
X154380000Y-114920000D01*
X154380000Y-101600000D01*
X154682041Y-101600000D01*
X154796115Y-102173489D01*
X155120971Y-102659670D01*
X155435752Y-102870000D01*
X155120971Y-103080330D01*
X154796115Y-103566511D01*
X154682041Y-104140000D01*
X154796115Y-104713489D01*
X155120971Y-105199670D01*
X155435752Y-105410000D01*
X155120971Y-105620330D01*
X154796115Y-106106511D01*
X154682041Y-106680000D01*
X154796115Y-107253489D01*
X155120971Y-107739670D01*
X155435752Y-107950000D01*
X155120971Y-108160330D01*
X154796115Y-108646511D01*
X154682041Y-109220000D01*
X154796115Y-109793489D01*
X155120971Y-110279670D01*
X155607152Y-110604526D01*
X156180641Y-110718600D01*
X156239359Y-110718600D01*
X156812848Y-110604526D01*
X157284356Y-110289474D01*
X157348073Y-110443299D01*
X157526702Y-110621927D01*
X157760091Y-110718600D01*
X158464250Y-110718600D01*
X158623000Y-110559850D01*
X158623000Y-109347000D01*
X158877000Y-109347000D01*
X158877000Y-110559850D01*
X159035750Y-110718600D01*
X159739909Y-110718600D01*
X159973298Y-110621927D01*
X160151927Y-110443299D01*
X160248600Y-110209910D01*
X160248600Y-109505750D01*
X160089850Y-109347000D01*
X158877000Y-109347000D01*
X158623000Y-109347000D01*
X158603000Y-109347000D01*
X158603000Y-109093000D01*
X158623000Y-109093000D01*
X158623000Y-109073000D01*
X158877000Y-109073000D01*
X158877000Y-109093000D01*
X160089850Y-109093000D01*
X160248600Y-108934250D01*
X160248600Y-108230090D01*
X160151927Y-107996701D01*
X159973298Y-107818073D01*
X159817977Y-107753737D01*
X159839029Y-107739670D01*
X160163885Y-107253489D01*
X160277959Y-106680000D01*
X160163885Y-106106511D01*
X159839029Y-105620330D01*
X159524248Y-105410000D01*
X159839029Y-105199670D01*
X160163885Y-104713489D01*
X160277959Y-104140000D01*
X160163885Y-103566511D01*
X159839029Y-103080330D01*
X159524248Y-102870000D01*
X159839029Y-102659670D01*
X160163885Y-102173489D01*
X160277959Y-101600000D01*
X160163885Y-101026511D01*
X159839029Y-100540330D01*
X159352848Y-100215474D01*
X158779359Y-100101400D01*
X158720641Y-100101400D01*
X158147152Y-100215474D01*
X157660971Y-100540330D01*
X157480000Y-100811172D01*
X157299029Y-100540330D01*
X156812848Y-100215474D01*
X156239359Y-100101400D01*
X156180641Y-100101400D01*
X155607152Y-100215474D01*
X155120971Y-100540330D01*
X154796115Y-101026511D01*
X154682041Y-101600000D01*
X154380000Y-101600000D01*
X154380000Y-96520000D01*
X172306655Y-96520000D01*
X172420729Y-97093489D01*
X172745585Y-97579670D01*
X173060366Y-97790000D01*
X172745585Y-98000330D01*
X172420729Y-98486511D01*
X172306655Y-99060000D01*
X172420729Y-99633489D01*
X172745585Y-100119670D01*
X173060366Y-100330000D01*
X172745585Y-100540330D01*
X172420729Y-101026511D01*
X172306655Y-101600000D01*
X172420729Y-102173489D01*
X172745585Y-102659670D01*
X173060366Y-102870000D01*
X172745585Y-103080330D01*
X172420729Y-103566511D01*
X172306655Y-104140000D01*
X172420729Y-104713489D01*
X172745585Y-105199670D01*
X173060366Y-105410000D01*
X172745585Y-105620330D01*
X172420729Y-106106511D01*
X172306655Y-106680000D01*
X172420729Y-107253489D01*
X172745585Y-107739670D01*
X173060366Y-107950000D01*
X172745585Y-108160330D01*
X172420729Y-108646511D01*
X172306655Y-109220000D01*
X172420729Y-109793489D01*
X172745585Y-110279670D01*
X173060366Y-110490000D01*
X172745585Y-110700330D01*
X172420729Y-111186511D01*
X172306655Y-111760000D01*
X172420729Y-112333489D01*
X172745585Y-112819670D01*
X172767780Y-112834500D01*
X172614302Y-112898073D01*
X172435673Y-113076701D01*
X172339000Y-113310090D01*
X172339000Y-114014250D01*
X172497750Y-114173000D01*
X173863000Y-114173000D01*
X173863000Y-114153000D01*
X174117000Y-114153000D01*
X174117000Y-114173000D01*
X175482250Y-114173000D01*
X175641000Y-114014250D01*
X175641000Y-113310090D01*
X175544327Y-113076701D01*
X175365698Y-112898073D01*
X175212220Y-112834500D01*
X175234415Y-112819670D01*
X175559271Y-112333489D01*
X175673345Y-111760000D01*
X175559271Y-111186511D01*
X175234415Y-110700330D01*
X174919634Y-110490000D01*
X175234415Y-110279670D01*
X175559271Y-109793489D01*
X175673345Y-109220000D01*
X175559271Y-108646511D01*
X175234415Y-108160330D01*
X174919634Y-107950000D01*
X175234415Y-107739670D01*
X175559271Y-107253489D01*
X175673345Y-106680000D01*
X175559271Y-106106511D01*
X175234415Y-105620330D01*
X174919634Y-105410000D01*
X175234415Y-105199670D01*
X175559271Y-104713489D01*
X175673345Y-104140000D01*
X175559271Y-103566511D01*
X175234415Y-103080330D01*
X174919634Y-102870000D01*
X175234415Y-102659670D01*
X175559271Y-102173489D01*
X175673345Y-101600000D01*
X175559271Y-101026511D01*
X175234415Y-100540330D01*
X174919634Y-100330000D01*
X175234415Y-100119670D01*
X175559271Y-99633489D01*
X175673345Y-99060000D01*
X175559271Y-98486511D01*
X175234415Y-98000330D01*
X174919634Y-97790000D01*
X175234415Y-97579670D01*
X175559271Y-97093489D01*
X175673345Y-96520000D01*
X176116655Y-96520000D01*
X176230729Y-97093489D01*
X176555585Y-97579670D01*
X176870366Y-97790000D01*
X176555585Y-98000330D01*
X176230729Y-98486511D01*
X176116655Y-99060000D01*
X176230729Y-99633489D01*
X176555585Y-100119670D01*
X176870366Y-100330000D01*
X176555585Y-100540330D01*
X176230729Y-101026511D01*
X176116655Y-101600000D01*
X176230729Y-102173489D01*
X176555585Y-102659670D01*
X176870366Y-102870000D01*
X176555585Y-103080330D01*
X176230729Y-103566511D01*
X176116655Y-104140000D01*
X176230729Y-104713489D01*
X176555585Y-105199670D01*
X176870366Y-105410000D01*
X176555585Y-105620330D01*
X176230729Y-106106511D01*
X176116655Y-106680000D01*
X176230729Y-107253489D01*
X176555585Y-107739670D01*
X176870366Y-107950000D01*
X176555585Y-108160330D01*
X176230729Y-108646511D01*
X176116655Y-109220000D01*
X176230729Y-109793489D01*
X176555585Y-110279670D01*
X176870366Y-110490000D01*
X176555585Y-110700330D01*
X176230729Y-111186511D01*
X176116655Y-111760000D01*
X176230729Y-112333489D01*
X176555585Y-112819670D01*
X176577780Y-112834500D01*
X176424302Y-112898073D01*
X176245673Y-113076701D01*
X176149000Y-113310090D01*
X176149000Y-114014250D01*
X176307750Y-114173000D01*
X177673000Y-114173000D01*
X177673000Y-114153000D01*
X177927000Y-114153000D01*
X177927000Y-114173000D01*
X179292250Y-114173000D01*
X179451000Y-114014250D01*
X179451000Y-113310090D01*
X179354327Y-113076701D01*
X179175698Y-112898073D01*
X179022220Y-112834500D01*
X179044415Y-112819670D01*
X179369271Y-112333489D01*
X179483345Y-111760000D01*
X179369271Y-111186511D01*
X179044415Y-110700330D01*
X178729634Y-110490000D01*
X179044415Y-110279670D01*
X179369271Y-109793489D01*
X179483345Y-109220000D01*
X179369271Y-108646511D01*
X179044415Y-108160330D01*
X178729634Y-107950000D01*
X179044415Y-107739670D01*
X179369271Y-107253489D01*
X179483345Y-106680000D01*
X179369271Y-106106511D01*
X179044415Y-105620330D01*
X178729634Y-105410000D01*
X179044415Y-105199670D01*
X179369271Y-104713489D01*
X179483345Y-104140000D01*
X179369271Y-103566511D01*
X179044415Y-103080330D01*
X178729634Y-102870000D01*
X179044415Y-102659670D01*
X179369271Y-102173489D01*
X179483345Y-101600000D01*
X179369271Y-101026511D01*
X179044415Y-100540330D01*
X178729634Y-100330000D01*
X179044415Y-100119670D01*
X179369271Y-99633489D01*
X179483345Y-99060000D01*
X179369271Y-98486511D01*
X179044415Y-98000330D01*
X178729634Y-97790000D01*
X179044415Y-97579670D01*
X179369271Y-97093489D01*
X179483345Y-96520000D01*
X179369271Y-95946511D01*
X179044415Y-95460330D01*
X178558234Y-95135474D01*
X177984745Y-95021400D01*
X177615255Y-95021400D01*
X177041766Y-95135474D01*
X176555585Y-95460330D01*
X176230729Y-95946511D01*
X176116655Y-96520000D01*
X175673345Y-96520000D01*
X175559271Y-95946511D01*
X175234415Y-95460330D01*
X174748234Y-95135474D01*
X174174745Y-95021400D01*
X173805255Y-95021400D01*
X173231766Y-95135474D01*
X172745585Y-95460330D01*
X172420729Y-95946511D01*
X172306655Y-96520000D01*
X154380000Y-96520000D01*
X154380000Y-94690000D01*
X179630000Y-94690000D01*
X179630000Y-125020000D01*
X179630000Y-125020000D01*
G37*
X179630000Y-125020000D02*
X154380000Y-125020000D01*
X154380000Y-123444481D01*
X154964777Y-123444481D01*
X155159995Y-123916943D01*
X155521155Y-124278735D01*
X155993276Y-124474777D01*
X156504481Y-124475223D01*
X156976943Y-124280005D01*
X157338735Y-123918845D01*
X157465000Y-123614765D01*
X157465000Y-123966310D01*
X157561673Y-124199699D01*
X157740302Y-124378327D01*
X157973691Y-124475000D01*
X158464250Y-124475000D01*
X158623000Y-124316250D01*
X158623000Y-123317000D01*
X158877000Y-123317000D01*
X158877000Y-124316250D01*
X159035750Y-124475000D01*
X159526309Y-124475000D01*
X159759698Y-124378327D01*
X159938327Y-124199699D01*
X160035000Y-123966310D01*
X160035000Y-123475750D01*
X159876250Y-123317000D01*
X158877000Y-123317000D01*
X158623000Y-123317000D01*
X158603000Y-123317000D01*
X158603000Y-123063000D01*
X158623000Y-123063000D01*
X158623000Y-122063750D01*
X158877000Y-122063750D01*
X158877000Y-123063000D01*
X159876250Y-123063000D01*
X160035000Y-122904250D01*
X160035000Y-122413690D01*
X159938327Y-122180301D01*
X159759698Y-122001673D01*
X159526309Y-121905000D01*
X159035750Y-121905000D01*
X158877000Y-122063750D01*
X158623000Y-122063750D01*
X158464250Y-121905000D01*
X157973691Y-121905000D01*
X157740302Y-122001673D01*
X157561673Y-122180301D01*
X157465000Y-122413690D01*
X157465000Y-122765567D01*
X157340005Y-122463057D01*
X156978845Y-122101265D01*
X156506724Y-121905223D01*
X155995519Y-121904777D01*
X155523057Y-122099995D01*
X155161265Y-122461155D01*
X154965223Y-122933276D01*
X154964777Y-123444481D01*
X154380000Y-123444481D01*
X154380000Y-114920000D01*
X154912560Y-114920000D01*
X154912560Y-116220000D01*
X154956838Y-116455317D01*
X155095910Y-116671441D01*
X155308110Y-116816431D01*
X155560000Y-116867440D01*
X156860000Y-116867440D01*
X157095317Y-116823162D01*
X157311441Y-116684090D01*
X157456431Y-116471890D01*
X157457012Y-116469016D01*
X157990590Y-116469016D01*
X158046271Y-116699611D01*
X158529078Y-116867622D01*
X159039428Y-116838083D01*
X159373729Y-116699611D01*
X159429410Y-116469016D01*
X158710000Y-115749605D01*
X157990590Y-116469016D01*
X157457012Y-116469016D01*
X157507440Y-116220000D01*
X157507440Y-116057615D01*
X157580389Y-116233729D01*
X157810984Y-116289410D01*
X158530395Y-115570000D01*
X158889605Y-115570000D01*
X159609016Y-116289410D01*
X159839611Y-116233729D01*
X160007622Y-115750922D01*
X159978083Y-115240572D01*
X159839611Y-114906271D01*
X159609016Y-114850590D01*
X158889605Y-115570000D01*
X158530395Y-115570000D01*
X157810984Y-114850590D01*
X157580389Y-114906271D01*
X157507440Y-115115902D01*
X157507440Y-114920000D01*
X157463162Y-114684683D01*
X157454347Y-114670984D01*
X157990590Y-114670984D01*
X158710000Y-115390395D01*
X159429410Y-114670984D01*
X159408829Y-114585750D01*
X172339000Y-114585750D01*
X172339000Y-115289910D01*
X172435673Y-115523299D01*
X172614302Y-115701927D01*
X172847691Y-115798600D01*
X173704250Y-115798600D01*
X173863000Y-115639850D01*
X173863000Y-114427000D01*
X174117000Y-114427000D01*
X174117000Y-115639850D01*
X174275750Y-115798600D01*
X175132309Y-115798600D01*
X175365698Y-115701927D01*
X175544327Y-115523299D01*
X175641000Y-115289910D01*
X175641000Y-114585750D01*
X176149000Y-114585750D01*
X176149000Y-115289910D01*
X176245673Y-115523299D01*
X176424302Y-115701927D01*
X176657691Y-115798600D01*
X177514250Y-115798600D01*
X177673000Y-115639850D01*
X177673000Y-114427000D01*
X177927000Y-114427000D01*
X177927000Y-115639850D01*
X178085750Y-115798600D01*
X178942309Y-115798600D01*
X179175698Y-115701927D01*
X179354327Y-115523299D01*
X179451000Y-115289910D01*
X179451000Y-114585750D01*
X179292250Y-114427000D01*
X177927000Y-114427000D01*
X177673000Y-114427000D01*
X176307750Y-114427000D01*
X176149000Y-114585750D01*
X175641000Y-114585750D01*
X175482250Y-114427000D01*
X174117000Y-114427000D01*
X173863000Y-114427000D01*
X172497750Y-114427000D01*
X172339000Y-114585750D01*
X159408829Y-114585750D01*
X159373729Y-114440389D01*
X158890922Y-114272378D01*
X158380572Y-114301917D01*
X158046271Y-114440389D01*
X157990590Y-114670984D01*
X157454347Y-114670984D01*
X157324090Y-114468559D01*
X157111890Y-114323569D01*
X156860000Y-114272560D01*
X155560000Y-114272560D01*
X155324683Y-114316838D01*
X155108559Y-114455910D01*
X154963569Y-114668110D01*
X154912560Y-114920000D01*
X154380000Y-114920000D01*
X154380000Y-101600000D01*
X154682041Y-101600000D01*
X154796115Y-102173489D01*
X155120971Y-102659670D01*
X155435752Y-102870000D01*
X155120971Y-103080330D01*
X154796115Y-103566511D01*
X154682041Y-104140000D01*
X154796115Y-104713489D01*
X155120971Y-105199670D01*
X155435752Y-105410000D01*
X155120971Y-105620330D01*
X154796115Y-106106511D01*
X154682041Y-106680000D01*
X154796115Y-107253489D01*
X155120971Y-107739670D01*
X155435752Y-107950000D01*
X155120971Y-108160330D01*
X154796115Y-108646511D01*
X154682041Y-109220000D01*
X154796115Y-109793489D01*
X155120971Y-110279670D01*
X155607152Y-110604526D01*
X156180641Y-110718600D01*
X156239359Y-110718600D01*
X156812848Y-110604526D01*
X157284356Y-110289474D01*
X157348073Y-110443299D01*
X157526702Y-110621927D01*
X157760091Y-110718600D01*
X158464250Y-110718600D01*
X158623000Y-110559850D01*
X158623000Y-109347000D01*
X158877000Y-109347000D01*
X158877000Y-110559850D01*
X159035750Y-110718600D01*
X159739909Y-110718600D01*
X159973298Y-110621927D01*
X160151927Y-110443299D01*
X160248600Y-110209910D01*
X160248600Y-109505750D01*
X160089850Y-109347000D01*
X158877000Y-109347000D01*
X158623000Y-109347000D01*
X158603000Y-109347000D01*
X158603000Y-109093000D01*
X158623000Y-109093000D01*
X158623000Y-109073000D01*
X158877000Y-109073000D01*
X158877000Y-109093000D01*
X160089850Y-109093000D01*
X160248600Y-108934250D01*
X160248600Y-108230090D01*
X160151927Y-107996701D01*
X159973298Y-107818073D01*
X159817977Y-107753737D01*
X159839029Y-107739670D01*
X160163885Y-107253489D01*
X160277959Y-106680000D01*
X160163885Y-106106511D01*
X159839029Y-105620330D01*
X159524248Y-105410000D01*
X159839029Y-105199670D01*
X160163885Y-104713489D01*
X160277959Y-104140000D01*
X160163885Y-103566511D01*
X159839029Y-103080330D01*
X159524248Y-102870000D01*
X159839029Y-102659670D01*
X160163885Y-102173489D01*
X160277959Y-101600000D01*
X160163885Y-101026511D01*
X159839029Y-100540330D01*
X159352848Y-100215474D01*
X158779359Y-100101400D01*
X158720641Y-100101400D01*
X158147152Y-100215474D01*
X157660971Y-100540330D01*
X157480000Y-100811172D01*
X157299029Y-100540330D01*
X156812848Y-100215474D01*
X156239359Y-100101400D01*
X156180641Y-100101400D01*
X155607152Y-100215474D01*
X155120971Y-100540330D01*
X154796115Y-101026511D01*
X154682041Y-101600000D01*
X154380000Y-101600000D01*
X154380000Y-96520000D01*
X172306655Y-96520000D01*
X172420729Y-97093489D01*
X172745585Y-97579670D01*
X173060366Y-97790000D01*
X172745585Y-98000330D01*
X172420729Y-98486511D01*
X172306655Y-99060000D01*
X172420729Y-99633489D01*
X172745585Y-100119670D01*
X173060366Y-100330000D01*
X172745585Y-100540330D01*
X172420729Y-101026511D01*
X172306655Y-101600000D01*
X172420729Y-102173489D01*
X172745585Y-102659670D01*
X173060366Y-102870000D01*
X172745585Y-103080330D01*
X172420729Y-103566511D01*
X172306655Y-104140000D01*
X172420729Y-104713489D01*
X172745585Y-105199670D01*
X173060366Y-105410000D01*
X172745585Y-105620330D01*
X172420729Y-106106511D01*
X172306655Y-106680000D01*
X172420729Y-107253489D01*
X172745585Y-107739670D01*
X173060366Y-107950000D01*
X172745585Y-108160330D01*
X172420729Y-108646511D01*
X172306655Y-109220000D01*
X172420729Y-109793489D01*
X172745585Y-110279670D01*
X173060366Y-110490000D01*
X172745585Y-110700330D01*
X172420729Y-111186511D01*
X172306655Y-111760000D01*
X172420729Y-112333489D01*
X172745585Y-112819670D01*
X172767780Y-112834500D01*
X172614302Y-112898073D01*
X172435673Y-113076701D01*
X172339000Y-113310090D01*
X172339000Y-114014250D01*
X172497750Y-114173000D01*
X173863000Y-114173000D01*
X173863000Y-114153000D01*
X174117000Y-114153000D01*
X174117000Y-114173000D01*
X175482250Y-114173000D01*
X175641000Y-114014250D01*
X175641000Y-113310090D01*
X175544327Y-113076701D01*
X175365698Y-112898073D01*
X175212220Y-112834500D01*
X175234415Y-112819670D01*
X175559271Y-112333489D01*
X175673345Y-111760000D01*
X175559271Y-111186511D01*
X175234415Y-110700330D01*
X174919634Y-110490000D01*
X175234415Y-110279670D01*
X175559271Y-109793489D01*
X175673345Y-109220000D01*
X175559271Y-108646511D01*
X175234415Y-108160330D01*
X174919634Y-107950000D01*
X175234415Y-107739670D01*
X175559271Y-107253489D01*
X175673345Y-106680000D01*
X175559271Y-106106511D01*
X175234415Y-105620330D01*
X174919634Y-105410000D01*
X175234415Y-105199670D01*
X175559271Y-104713489D01*
X175673345Y-104140000D01*
X175559271Y-103566511D01*
X175234415Y-103080330D01*
X174919634Y-102870000D01*
X175234415Y-102659670D01*
X175559271Y-102173489D01*
X175673345Y-101600000D01*
X175559271Y-101026511D01*
X175234415Y-100540330D01*
X174919634Y-100330000D01*
X175234415Y-100119670D01*
X175559271Y-99633489D01*
X175673345Y-99060000D01*
X175559271Y-98486511D01*
X175234415Y-98000330D01*
X174919634Y-97790000D01*
X175234415Y-97579670D01*
X175559271Y-97093489D01*
X175673345Y-96520000D01*
X176116655Y-96520000D01*
X176230729Y-97093489D01*
X176555585Y-97579670D01*
X176870366Y-97790000D01*
X176555585Y-98000330D01*
X176230729Y-98486511D01*
X176116655Y-99060000D01*
X176230729Y-99633489D01*
X176555585Y-100119670D01*
X176870366Y-100330000D01*
X176555585Y-100540330D01*
X176230729Y-101026511D01*
X176116655Y-101600000D01*
X176230729Y-102173489D01*
X176555585Y-102659670D01*
X176870366Y-102870000D01*
X176555585Y-103080330D01*
X176230729Y-103566511D01*
X176116655Y-104140000D01*
X176230729Y-104713489D01*
X176555585Y-105199670D01*
X176870366Y-105410000D01*
X176555585Y-105620330D01*
X176230729Y-106106511D01*
X176116655Y-106680000D01*
X176230729Y-107253489D01*
X176555585Y-107739670D01*
X176870366Y-107950000D01*
X176555585Y-108160330D01*
X176230729Y-108646511D01*
X176116655Y-109220000D01*
X176230729Y-109793489D01*
X176555585Y-110279670D01*
X176870366Y-110490000D01*
X176555585Y-110700330D01*
X176230729Y-111186511D01*
X176116655Y-111760000D01*
X176230729Y-112333489D01*
X176555585Y-112819670D01*
X176577780Y-112834500D01*
X176424302Y-112898073D01*
X176245673Y-113076701D01*
X176149000Y-113310090D01*
X176149000Y-114014250D01*
X176307750Y-114173000D01*
X177673000Y-114173000D01*
X177673000Y-114153000D01*
X177927000Y-114153000D01*
X177927000Y-114173000D01*
X179292250Y-114173000D01*
X179451000Y-114014250D01*
X179451000Y-113310090D01*
X179354327Y-113076701D01*
X179175698Y-112898073D01*
X179022220Y-112834500D01*
X179044415Y-112819670D01*
X179369271Y-112333489D01*
X179483345Y-111760000D01*
X179369271Y-111186511D01*
X179044415Y-110700330D01*
X178729634Y-110490000D01*
X179044415Y-110279670D01*
X179369271Y-109793489D01*
X179483345Y-109220000D01*
X179369271Y-108646511D01*
X179044415Y-108160330D01*
X178729634Y-107950000D01*
X179044415Y-107739670D01*
X179369271Y-107253489D01*
X179483345Y-106680000D01*
X179369271Y-106106511D01*
X179044415Y-105620330D01*
X178729634Y-105410000D01*
X179044415Y-105199670D01*
X179369271Y-104713489D01*
X179483345Y-104140000D01*
X179369271Y-103566511D01*
X179044415Y-103080330D01*
X178729634Y-102870000D01*
X179044415Y-102659670D01*
X179369271Y-102173489D01*
X179483345Y-101600000D01*
X179369271Y-101026511D01*
X179044415Y-100540330D01*
X178729634Y-100330000D01*
X179044415Y-100119670D01*
X179369271Y-99633489D01*
X179483345Y-99060000D01*
X179369271Y-98486511D01*
X179044415Y-98000330D01*
X178729634Y-97790000D01*
X179044415Y-97579670D01*
X179369271Y-97093489D01*
X179483345Y-96520000D01*
X179369271Y-95946511D01*
X179044415Y-95460330D01*
X178558234Y-95135474D01*
X177984745Y-95021400D01*
X177615255Y-95021400D01*
X177041766Y-95135474D01*
X176555585Y-95460330D01*
X176230729Y-95946511D01*
X176116655Y-96520000D01*
X175673345Y-96520000D01*
X175559271Y-95946511D01*
X175234415Y-95460330D01*
X174748234Y-95135474D01*
X174174745Y-95021400D01*
X173805255Y-95021400D01*
X173231766Y-95135474D01*
X172745585Y-95460330D01*
X172420729Y-95946511D01*
X172306655Y-96520000D01*
X154380000Y-96520000D01*
X154380000Y-94690000D01*
X179630000Y-94690000D01*
X179630000Y-125020000D01*
M02*
