M48
;DRILL file {KiCad 4.0.2-stable} date Friday, 10 June 2016 'pmt' 15:57:03
;FORMAT={-:-/ absolute / inch / decimal}
FMAT,2
INCH,TZ
T1C0.031
T2C0.032
T3C0.040
%
G90
G05
M72
T1
X6.35Y-4.3
X6.4484Y-4.3
X6.45Y-4.5
T2
X6.3516Y-4.5
T3
X6.35Y-3.8
X6.35Y-3.9
X6.35Y-4.
X6.35Y-4.1
X6.45Y-3.8
X6.45Y-3.9
X6.45Y-4.
X6.45Y-4.1
X6.85Y-3.8
X6.85Y-3.9
X6.85Y-4.
X6.85Y-4.1
X6.85Y-4.2
X6.85Y-4.3
X6.85Y-4.4
X6.85Y-4.5
X7.Y-3.8
X7.Y-3.9
X7.Y-4.
X7.Y-4.1
X7.Y-4.2
X7.Y-4.3
X7.Y-4.4
X7.Y-4.5
T0
M30
