G04 #@! TF.FileFunction,Legend,Bot*
%FSLAX46Y46*%
G04 Gerber Fmt 4.6, Leading zero omitted, Abs format (unit mm)*
G04 Created by KiCad (PCBNEW 4.0.2-stable) date Friday, 27 May 2016 'pmt' 12:53:24*
%MOMM*%
G01*
G04 APERTURE LIST*
%ADD10C,0.100000*%
%ADD11C,0.150000*%
G04 APERTURE END LIST*
D10*
D11*
X165971220Y-111909860D02*
X165610540Y-113380520D01*
X165610540Y-113380520D02*
X165331140Y-112318800D01*
X165331140Y-112318800D02*
X165021260Y-113390680D01*
X165021260Y-113390680D02*
X164680900Y-111940340D01*
X167391080Y-112600740D02*
X166601140Y-112590580D01*
X166601140Y-112590580D02*
X166590980Y-112600740D01*
X166590980Y-112600740D02*
X166590980Y-112590580D01*
X166550340Y-111879380D02*
X166550340Y-113421160D01*
X167439340Y-111869220D02*
X167439340Y-113438940D01*
X167439340Y-113438940D02*
X167429180Y-113428780D01*
X167990520Y-111970820D02*
X168341040Y-111889540D01*
X168341040Y-111889540D02*
X168661080Y-111879380D01*
X168661080Y-111879380D02*
X168899840Y-112080040D01*
X168899840Y-112080040D02*
X168930320Y-112349280D01*
X168930320Y-112349280D02*
X168689020Y-112590580D01*
X168689020Y-112590580D02*
X168300400Y-112720120D01*
X168300400Y-112720120D02*
X168120060Y-112880140D01*
X168120060Y-112880140D02*
X168079420Y-113179860D01*
X168079420Y-113179860D02*
X168310560Y-113400840D01*
X168310560Y-113400840D02*
X168630600Y-113428780D01*
X168630600Y-113428780D02*
X168981120Y-113319560D01*
X170019980Y-111869220D02*
X170268900Y-111889540D01*
X170268900Y-111889540D02*
X170510200Y-112130840D01*
X170510200Y-112130840D02*
X170599100Y-112621060D01*
X170599100Y-112621060D02*
X170571160Y-112969040D01*
X170571160Y-112969040D02*
X170370500Y-113289080D01*
X170370500Y-113289080D02*
X170119040Y-113411000D01*
X170119040Y-113411000D02*
X169809160Y-113339880D01*
X169809160Y-113339880D02*
X169590720Y-113159540D01*
X169590720Y-113159540D02*
X169519600Y-112699800D01*
X169519600Y-112699800D02*
X169570400Y-112290860D01*
X169570400Y-112290860D02*
X169679620Y-112008920D01*
X169679620Y-112008920D02*
X170040300Y-111879380D01*
X169420540Y-110149640D02*
X169679620Y-110710980D01*
X169679620Y-110710980D02*
X169141140Y-111229140D01*
X169141140Y-111229140D02*
X168620440Y-110959900D01*
X168620440Y-110959900D02*
X168341040Y-111119920D01*
X166900860Y-111099600D02*
X166570660Y-110909100D01*
X166570660Y-110909100D02*
X166131240Y-111239300D01*
X166131240Y-111239300D02*
X165658800Y-110749080D01*
X165658800Y-110749080D02*
X165940740Y-110269020D01*
X165940740Y-110269020D02*
X165750240Y-109799120D01*
X165750240Y-109799120D02*
X165140640Y-109611160D01*
X165140640Y-109611160D02*
X165140640Y-108930440D01*
X165140640Y-108930440D02*
X165699440Y-108790740D01*
X165699440Y-108790740D02*
X165900100Y-108219240D01*
X165900100Y-108219240D02*
X165630860Y-107749340D01*
X165630860Y-107749340D02*
X166100760Y-107238800D01*
X166100760Y-107238800D02*
X166618920Y-107500420D01*
X166618920Y-107500420D02*
X167088820Y-107299760D01*
X167088820Y-107299760D02*
X167259000Y-106758740D01*
X167259000Y-106758740D02*
X167949880Y-106740960D01*
X167949880Y-106740960D02*
X168160700Y-107289600D01*
X168160700Y-107289600D02*
X168579800Y-107459780D01*
X168579800Y-107459780D02*
X169130980Y-107190540D01*
X169130980Y-107190540D02*
X169649140Y-107718860D01*
X169649140Y-107718860D02*
X169400220Y-108259880D01*
X169400220Y-108259880D02*
X169570400Y-108739940D01*
X169570400Y-108739940D02*
X170119040Y-108839000D01*
X170119040Y-108839000D02*
X170129200Y-109540040D01*
X170129200Y-109540040D02*
X169570400Y-109740700D01*
X169570400Y-109740700D02*
X169430700Y-110139480D01*
X167289480Y-110119160D02*
X166989760Y-109969300D01*
X166989760Y-109969300D02*
X166789100Y-109771180D01*
X166789100Y-109771180D02*
X166639240Y-109369860D01*
X166639240Y-109369860D02*
X166639240Y-108971080D01*
X166639240Y-108971080D02*
X166789100Y-108620560D01*
X166789100Y-108620560D02*
X167241220Y-108270040D01*
X167241220Y-108270040D02*
X167690800Y-108219240D01*
X167690800Y-108219240D02*
X168089580Y-108320840D01*
X168089580Y-108320840D02*
X168490900Y-108668820D01*
X168490900Y-108668820D02*
X168640760Y-109120940D01*
X168640760Y-109120940D02*
X168589960Y-109618780D01*
X168589960Y-109618780D02*
X168341040Y-109921040D01*
X168341040Y-109921040D02*
X167990520Y-110119160D01*
X167990520Y-110119160D02*
X168341040Y-111119920D01*
X167289480Y-110119160D02*
X166890700Y-111119920D01*
M02*
